<svg width="35.981" height="35.981" preserveAspectRatio="none" xmlns="http://www.w3.org/2000/svg"><defs><clipPath id="a"><path d="M0 35.981h35.981V0H0z" fill="none"/></clipPath></defs><path d="M0 0h35.981v35.981H0z" fill="none"/><g clip-path="url(#a)" transform="matrix(1 0 0 -1 0 35.981)"><path d="M17.991 35.981c9.936 0 17.99-8.055 17.99-17.99C35.981 8.053 27.927 0 17.991 0 8.054 0 .001 8.053.001 17.99c0 9.935 8.053 17.99 17.99 17.99" fill="#fff"/></g><g clip-path="url(#a)" transform="matrix(1 0 0 -1 0 35.981)"><path d="M17.991 25.856a7.865 7.865 0 007.865-7.866 7.865 7.865 0 00-7.865-7.865 7.865 7.865 0 00-7.866 7.865 7.865 7.865 0 007.866 7.866" fill="#d22856"/></g></svg>